<?xml version="1.0" encoding="UTF-8" standalone="no"?>
<!-- Created with Inkscape (http://www.inkscape.org/) -->

<svg
   width="101.60473mm"
   height="98.809174mm"
   viewBox="0 0 101.60473 98.809174"
   version="1.1"
   id="svg2238"
   inkscape:version="1.1 (c68e22c387, 2021-05-23)"
   sodipodi:docname="face.svg"
   inkscape:export-filename="\\wsl.localhost\Ubuntu\home\qba\Qooba\Docker\onceuponatimeai\websites\src\home\public\images\face.png"
   inkscape:export-xdpi="50"
   inkscape:export-ydpi="50"
   xmlns:inkscape="http://www.inkscape.org/namespaces/inkscape"
   xmlns:sodipodi="http://sodipodi.sourceforge.net/DTD/sodipodi-0.dtd"
   xmlns="http://www.w3.org/2000/svg"
   xmlns:svg="http://www.w3.org/2000/svg">
  <sodipodi:namedview
     id="namedview2240"
     pagecolor="#ffffff"
     bordercolor="#666666"
     borderopacity="1.0"
     inkscape:pageshadow="2"
     inkscape:pageopacity="0.0"
     inkscape:pagecheckerboard="0"
     inkscape:document-units="mm"
     showgrid="false"
     inkscape:zoom="0.37861251"
     inkscape:cx="51.503844"
     inkscape:cy="239.03066"
     inkscape:window-width="1920"
     inkscape:window-height="1009"
     inkscape:window-x="3352"
     inkscape:window-y="56"
     inkscape:window-maximized="1"
     inkscape:current-layer="layer1" />
  <defs
     id="defs2235" />
  <g
     inkscape:label="Layer 1"
     inkscape:groupmode="layer"
     id="layer1"
     transform="translate(-82.424459,-23.696565)">
    <ellipse
       style="fill:#ffffff;fill-opacity:1;stroke:#000000;stroke-width:3.33363;stroke-linecap:round;stroke-miterlimit:4;stroke-dasharray:none"
       id="ellipse46551"
       cx="133.22682"
       cy="73.101151"
       rx="49.135548"
       ry="47.73777" />
    <g
       id="g46559"
       transform="matrix(0.59242317,0,0,-0.59242317,457.54173,361.86854)">
      <path
         class="st2"
         d="m -578.98002,486.32091 c -9.5475,0 -15.12,6.1275 -14.955,13.71 0.5325,24.82501 30.1125,23.51251 29.9775,-0.345 -0.0525,-7.4325 -5.8725,-13.365 -15.0225,-13.365 z"
         id="path46553"
         style="clip-rule:evenodd;fill:#000000;fill-opacity:1;fill-rule:evenodd;stroke-width:0.75" />
      <path
         class="st4"
         d="m -583.36002,502.95591 c 2.9775,0 5.4,2.43001 5.4,5.40001 0,2.97 -2.4225,5.4 -5.4,5.4 -2.9775,0 -5.4,-2.43 -5.4,-5.4 0,-2.97 2.4225,-5.40001 5.4,-5.40001 z"
         id="path46555"
         style="clip-rule:evenodd;fill:#ffffff;fill-rule:evenodd;stroke-width:0.75" />
      <path
         class="st4"
         d="m -573.87252,490.95591 c 1.1625,0 2.115,0.9525 2.115,2.115 0,1.1625 -0.9525,2.115 -2.115,2.115 -1.1625,0 -2.115,-0.9525 -2.115,-2.115 0,-1.1625 0.9525,-2.115 2.115,-2.115 z"
         id="path46557"
         style="clip-rule:evenodd;fill:#ffffff;fill-rule:evenodd;stroke-width:0.75" />
    </g>
    <g
       id="g46567"
       transform="matrix(0.59242317,0,0,-0.59242317,465.5344,358.78673)">
      <path
         class="st2"
         d="m -525.75252,488.16591 c -9.5475,0 -15.12,6.1275 -14.955,13.71 0.5325,24.82501 30.1125,23.51251 29.9775,-0.345 -0.0525,-7.4325 -5.8725,-13.365 -15.0225,-13.365 z"
         id="path46561"
         style="clip-rule:evenodd;fill:#000000;fill-opacity:1;fill-rule:evenodd;stroke-width:0.75" />
      <path
         class="st4"
         d="m -530.13252,504.80091 c 2.9775,0 5.4,2.43001 5.4,5.40001 0,2.97 -2.43,5.4 -5.4,5.4 -2.97,0 -5.4,-2.43 -5.4,-5.4 0,-2.97 2.4225,-5.40001 5.4,-5.40001 z"
         id="path46563"
         style="clip-rule:evenodd;fill:#ffffff;fill-rule:evenodd;stroke-width:0.75" />
      <path
         class="st4"
         d="m -520.64502,492.80091 c 1.1625,0 2.115,0.9525 2.115,2.115 0,1.1625 -0.9525,2.115 -2.115,2.115 -1.1625,0 -2.115,-0.9525 -2.115,-2.115 0,-1.1625 0.9525,-2.115 2.115,-2.115 z"
         id="path46565"
         style="clip-rule:evenodd;fill:#ffffff;fill-rule:evenodd;stroke-width:0.75" />
    </g>
    <path
       class="cls-6"
       d="m 104.93658,52.455066 a 4.8371676,4.8371676 0 0 1 6.2047,-2.859134"
       id="path46569"
       style="fill:none;stroke:#000000;stroke-width:1.2968px;stroke-linecap:round;stroke-linejoin:round;stroke-opacity:1" />
    <path
       class="cls-6"
       d="m 158.78916,47.693051 a 4.8371676,4.8371676 0 0 0 -6.71901,-1.382873"
       id="path46571"
       style="fill:none;stroke:#000000;stroke-width:1.2968px;stroke-linecap:round;stroke-linejoin:round;stroke-opacity:1" />
    <g
       id="g46577"
       transform="matrix(0.23520668,0,0,-0.23520668,144.61167,39.489148)">
      <path
         style="fill:none;stroke:#000000;stroke-width:12.7559;stroke-linecap:butt;stroke-linejoin:miter;stroke-miterlimit:4;stroke-dasharray:none;stroke-opacity:1"
         d="m -131.90836,-188.60495 c 13.79168,5.53402 28.21524,0.11845 43.070641,0.50955 13.23862,0.34854 27.94078,0.15448 41.11834,1.47142 13.24292,1.32347 26.47475,2.86121 39.6183397,4.95225 10.29521,1.63788 20.5063803,3.77993 30.7042203,5.94278 8.61789,1.82776 17.31209,4.9173 25.75192,7.44277 9.10691,2.72508 17.48077,6.26351 26.74239,8.40459 3.23273,0.74734 6.77971,2.10592 9.90458,0.99045 3.51785,-1.25574 6.08331,-4.67326 7.92367,-7.92368 2.01206,-3.55369 2.89485,-7.80244 2.97138,-11.88548 0.12014,-6.40931 -1.31577,-12.97995 -3.96184,-18.81878 -3.40697,-7.51785 -9.7204,-13.34834 -14.85688,-19.80915 -5.1035,-6.41933 -9.62199,-10.4803 -15.84734,-15.8187 -6.74824,-5.78679 -15.10438,-12.38289 -22.78054,-16.86645 -8.16857,-4.77117 -16.03783,-10.20744 -24.76147,-13.86637 -7.6114303,-3.19244 -15.6797303,-5.30321 -23.771,-6.93323 -11.40151,-2.29688 -23.03592,-3.86109 -34.66605,-3.9618 -10.28217,-0.089 -20.68023,0.67994 -30.70422,2.97135 -13.03396,2.97947 -26.179661,6.97574 -37.637421,13.86638 -7.21332,4.33805 -13.75954,10.11059 -18.81872,16.8378 -5.9465,7.90708 -11.57686,16.93446 -12.87596,26.74237 -0.70571,5.32797 0.46397,11.0936 2.97138,15.84735 2.1783,4.12979 5.57134,8.16584 9.90458,9.90458 z"
         id="path46573"
         sodipodi:nodetypes="sssssssssssssssssssssss" />
      <path
         style="fill:none;stroke:#000000;stroke-width:11.3386;stroke-linecap:round;stroke-linejoin:miter;stroke-miterlimit:4;stroke-dasharray:none;stroke-opacity:1"
         d="m -134.21914,-225.23159 43.422321,-0.70035 36.41872,2.10105 44.8230397,7.00358 35.0180003,9.1047 30.11547,10.5054 19.61008,9.1047 13.30685,7.00357"
         id="path46575" />
    </g>
    <g
       id="g46615"
       transform="matrix(0.59242317,0,0,-0.59242317,457.54173,361.86854)">
      <path
         class="st2"
         d="m -578.98002,486.32091 c -9.5475,0 -15.12,6.1275 -14.955,13.71 0.5325,24.82501 30.1125,23.51251 29.9775,-0.345 -0.0525,-7.4325 -5.8725,-13.365 -15.0225,-13.365 z"
         id="path46609"
         style="clip-rule:evenodd;fill:#000000;fill-opacity:1;fill-rule:evenodd;stroke-width:0.75" />
      <path
         class="st4"
         d="m -583.36002,502.95591 c 2.9775,0 5.4,2.43001 5.4,5.40001 0,2.97 -2.4225,5.4 -5.4,5.4 -2.9775,0 -5.4,-2.43 -5.4,-5.4 0,-2.97 2.4225,-5.40001 5.4,-5.40001 z"
         id="path46611"
         style="clip-rule:evenodd;fill:#ffffff;fill-rule:evenodd;stroke-width:0.75" />
      <path
         class="st4"
         d="m -573.87252,490.95591 c 1.1625,0 2.115,0.9525 2.115,2.115 0,1.1625 -0.9525,2.115 -2.115,2.115 -1.1625,0 -2.115,-0.9525 -2.115,-2.115 0,-1.1625 0.9525,-2.115 2.115,-2.115 z"
         id="path46613"
         style="clip-rule:evenodd;fill:#ffffff;fill-rule:evenodd;stroke-width:0.75" />
    </g>
    <g
       id="g46623"
       transform="matrix(0.59242317,0,0,-0.59242317,465.5344,358.78673)">
      <path
         class="st2"
         d="m -525.75252,488.16591 c -9.5475,0 -15.12,6.1275 -14.955,13.71 0.5325,24.82501 30.1125,23.51251 29.9775,-0.345 -0.0525,-7.4325 -5.8725,-13.365 -15.0225,-13.365 z"
         id="path46617"
         style="clip-rule:evenodd;fill:#000000;fill-opacity:1;fill-rule:evenodd;stroke-width:0.75" />
      <path
         class="st4"
         d="m -530.13252,504.80091 c 2.9775,0 5.4,2.43001 5.4,5.40001 0,2.97 -2.43,5.4 -5.4,5.4 -2.97,0 -5.4,-2.43 -5.4,-5.4 0,-2.97 2.4225,-5.40001 5.4,-5.40001 z"
         id="path46619"
         style="clip-rule:evenodd;fill:#ffffff;fill-rule:evenodd;stroke-width:0.75" />
      <path
         class="st4"
         d="m -520.64502,492.80091 c 1.1625,0 2.115,0.9525 2.115,2.115 0,1.1625 -0.9525,2.115 -2.115,2.115 -1.1625,0 -2.115,-0.9525 -2.115,-2.115 0,-1.1625 0.9525,-2.115 2.115,-2.115 z"
         id="path46621"
         style="clip-rule:evenodd;fill:#ffffff;fill-rule:evenodd;stroke-width:0.75" />
    </g>
    <path
       class="cls-6"
       d="m 104.93658,52.455066 a 4.8371676,4.8371676 0 0 1 6.2047,-2.859134"
       id="path46625"
       style="fill:none;stroke:#000000;stroke-width:1.2968px;stroke-linecap:round;stroke-linejoin:round;stroke-opacity:1" />
    <path
       class="cls-6"
       d="m 158.78916,47.693051 a 4.8371676,4.8371676 0 0 0 -6.71901,-1.382873"
       id="path46627"
       style="fill:none;stroke:#000000;stroke-width:1.2968px;stroke-linecap:round;stroke-linejoin:round;stroke-opacity:1" />
    <g
       id="g46633"
       transform="matrix(0.23520668,0,0,-0.23520668,144.61167,39.489148)"
       style="fill:#ffffff;fill-opacity:1">
      <path
         style="fill:#ffffff;fill-opacity:1;stroke:#000000;stroke-width:12.7559;stroke-linecap:butt;stroke-linejoin:miter;stroke-miterlimit:4;stroke-dasharray:none;stroke-opacity:1"
         d="m -131.90836,-188.60495 c 13.79168,5.53402 28.21524,0.11845 43.070641,0.50955 13.23862,0.34854 27.94078,0.15448 41.11834,1.47142 13.24292,1.32347 26.47475,2.86121 39.6183397,4.95225 10.29521,1.63788 20.5063803,3.77993 30.7042203,5.94278 8.61789,1.82776 17.31209,4.9173 25.75192,7.44277 9.10691,2.72508 17.48077,6.26351 26.74239,8.40459 3.23273,0.74734 6.77971,2.10592 9.90458,0.99045 3.51785,-1.25574 6.08331,-4.67326 7.92367,-7.92368 2.01206,-3.55369 2.89485,-7.80244 2.97138,-11.88548 0.12014,-6.40931 -1.31577,-12.97995 -3.96184,-18.81878 -3.40697,-7.51785 -9.7204,-13.34834 -14.85688,-19.80915 -5.1035,-6.41933 -9.62199,-10.4803 -15.84734,-15.8187 -6.74824,-5.78679 -15.10438,-12.38289 -22.78054,-16.86645 -8.16857,-4.77117 -16.03783,-10.20744 -24.76147,-13.86637 -7.6114303,-3.19244 -15.6797303,-5.30321 -23.771,-6.93323 -11.40151,-2.29688 -23.03592,-3.86109 -34.66605,-3.9618 -10.28217,-0.089 -20.68023,0.67994 -30.70422,2.97135 -13.03396,2.97947 -26.179661,6.97574 -37.637421,13.86638 -7.21332,4.33805 -13.75954,10.11059 -18.81872,16.8378 -5.9465,7.90708 -11.57686,16.93446 -12.87596,26.74237 -0.70571,5.32797 0.46397,11.0936 2.97138,15.84735 2.1783,4.12979 5.57134,8.16584 9.90458,9.90458 z"
         id="path46629"
         sodipodi:nodetypes="sssssssssssssssssssssss" />
      <path
         style="fill:#ffffff;fill-opacity:1;stroke:#000000;stroke-width:11.3386;stroke-linecap:round;stroke-linejoin:miter;stroke-miterlimit:4;stroke-dasharray:none;stroke-opacity:1"
         d="m -134.21914,-225.23159 43.422321,-0.70035 36.41872,2.10105 44.8230397,7.00358 35.0180003,9.1047 30.11547,10.5054 19.61008,9.1047 13.30685,7.00357"
         id="path46631" />
    </g>
    <path
       id="circle14216-9-99-9-0"
       style="fill:#d0d0d0;fill-opacity:1;stroke:none;stroke-width:0.235584;stroke-linecap:round"
       d="m 89.72091,61.39976 a 44.449893,44.449893 0 0 0 -1.67378,11.97831 44.449893,44.449893 0 0 0 44.44993,44.44993 44.449893,44.449893 0 0 0 23.01604,-6.45222 52.954941,52.954941 0 0 1 -12.88791,1.62348 52.954941,52.954941 0 0 1 -52.90428,-51.5995 z" />
  </g>
</svg>
